<svg width="380" height="365" viewBox="0 0 380 365" fill="none" xmlns="http://www.w3.org/2000/svg">
<path d="M337.187 40.7967H257.072C256.943 40.7963 256.819 40.7455 256.728 40.6556C256.636 40.5657 256.585 40.444 256.585 40.3171C256.585 40.1901 256.636 40.0684 256.728 39.9785C256.819 39.8886 256.943 39.8379 257.072 39.8374H337.187C337.316 39.8379 337.44 39.8886 337.531 39.9785C337.622 40.0684 337.673 40.1901 337.673 40.3171C337.673 40.444 337.622 40.5657 337.531 40.6556C337.44 40.7455 337.316 40.7963 337.187 40.7967V40.7967Z" fill="#E6E6E6"/>
<path d="M64.148 197.525H41.9113V248.113H64.148V197.525Z" fill="#3F3D56"/>
<path d="M346.15 197.525H323.913V248.113H346.15V197.525Z" fill="#3F3D56"/>
<path d="M63.9356 154.678C99.2463 154.678 127.871 126.587 127.871 91.9341C127.871 57.2815 99.2463 29.1899 63.9356 29.1899C28.625 29.1899 0 57.2815 0 91.9341C0 126.587 28.625 154.678 63.9356 154.678Z" fill="#E4E4E4"/>
<path d="M376.57 147.345C376.364 146.287 376.147 145.232 375.919 144.181C375.408 141.824 374.846 139.472 374.24 137.143C373.94 135.964 373.618 134.786 373.29 133.613V133.607C362.691 96.3528 340.322 63.3592 309.401 39.3747C278.48 15.3901 240.602 1.65164 201.219 0.136451H201.203C198.817 0.0437066 196.427 -0.0017588 194.031 5.20199e-05C193.375 5.20199e-05 192.719 0.00550787 192.068 0.0164341C151.889 0.450141 112.93 13.628 81.0113 37.5817C49.0924 61.5355 25.926 94.9798 14.9722 132.92C14.6274 134.109 14.2994 135.302 13.9882 136.499C13.3654 138.85 12.7983 141.213 12.27 143.592V143.597C12.0366 144.661 11.8143 145.719 11.5974 146.783C9.23808 158.549 8.05385 170.513 8.0615 182.504C8.0615 187.081 8.23389 191.665 8.57864 196.16C8.6286 196.804 8.67855 197.448 8.73422 198.086C8.86778 199.696 9.03446 201.371 9.2291 203.073C13.9584 243.895 32.5817 281.958 62.087 311.106C91.5923 340.253 130.254 358.78 171.819 363.691C213.384 368.602 255.422 359.609 291.134 338.166C326.845 316.724 354.142 284.086 368.608 245.532C369.893 242.111 371.068 238.655 372.133 235.165C374.75 226.656 376.72 217.968 378.026 209.173C378.332 207.143 378.601 205.11 378.832 203.073C379.027 201.371 379.194 199.696 379.327 198.092C379.772 192.979 380 187.736 380 182.504C380.006 170.704 378.857 158.93 376.57 147.345V147.345ZM377.665 197.955C377.537 199.543 377.37 201.207 377.176 202.888C376.942 204.912 376.677 206.931 376.381 208.944C375.077 217.66 373.124 226.271 370.537 234.707C369.475 238.161 368.31 241.58 367.04 244.964C340.493 315.789 270.965 363.371 194.031 363.371C117.097 363.371 47.5681 315.789 21.021 244.964C15.9295 231.39 12.5265 217.262 10.8858 202.888C10.6912 201.207 10.5245 199.543 10.3909 197.95C10.3353 197.317 10.2853 196.684 10.2354 196.046C9.90173 191.588 9.72936 187.038 9.72936 182.504C9.72144 169.893 11.0594 157.315 13.7213 144.977C13.9547 143.881 14.2047 142.79 14.455 141.698V141.693C15.0444 139.227 15.6801 136.779 16.3621 134.349C16.4566 134.011 16.551 133.673 16.6512 133.34C16.74 133.018 16.8344 132.696 16.9346 132.374C17.1013 131.785 17.2794 131.201 17.4572 130.623C40.057 56.6773 109.675 2.48807 192.079 1.64786C192.73 1.6424 193.38 1.63693 194.031 1.63693C196.41 1.63693 198.782 1.68058 201.147 1.76788C281.55 4.77961 348.927 58.5869 370.827 131.348C371.194 132.57 371.549 133.8 371.894 135.037C372.561 137.437 373.178 139.865 373.745 142.304C373.996 143.384 374.235 144.47 374.463 145.561C377.044 157.712 378.34 170.092 378.332 182.504C378.332 187.687 378.11 192.887 377.665 197.955Z" fill="#3F3D56"/>
<path d="M61.6211 168.264H44.4382V200.005H61.6211V168.264Z" fill="#3F3D56"/>
<path d="M51.0082 99.8198H46.9651V171.238H51.0082V99.8198Z" fill="#3F3D56"/>
<path d="M59.0943 99.8198H55.0512V171.238H59.0943V99.8198Z" fill="#3F3D56"/>
<path d="M58.0835 102.796H48.9867V107.755H58.0835V102.796Z" fill="#3F3D56"/>
<path d="M58.0835 122.634H48.9867V127.594H58.0835V122.634Z" fill="#3F3D56"/>
<path d="M58.0835 144.457H48.9867V149.417H58.0835V144.457Z" fill="#3F3D56"/>
<path d="M49.9974 96.8445H47.9759V101.804H49.9974V96.8445Z" fill="#3F3D56"/>
<path d="M58.0835 96.8445H56.062V101.804H58.0835V96.8445Z" fill="#3F3D56"/>
<path d="M343.623 168.264H326.44V200.005H343.623V168.264Z" fill="#3F3D56"/>
<path d="M333.01 99.8198H328.967V171.238H333.01V99.8198Z" fill="#3F3D56"/>
<path d="M341.096 99.8198H337.053V171.238H341.096V99.8198Z" fill="#3F3D56"/>
<path d="M340.085 102.796H330.989V107.755H340.085V102.796Z" fill="#3F3D56"/>
<path d="M340.085 122.634H330.989V127.594H340.085V122.634Z" fill="#3F3D56"/>
<path d="M340.085 144.457H330.989V149.417H340.085V144.457Z" fill="#3F3D56"/>
<path d="M331.999 96.8445H329.978V101.804H331.999V96.8445Z" fill="#3F3D56"/>
<path d="M340.086 96.8445H338.064V101.804H340.086V96.8445Z" fill="#3F3D56"/>
<path d="M378.499 198.021C378.36 199.685 378.195 201.338 378.004 202.98H10.0573C9.86833 201.338 9.70345 199.685 9.56265 198.021H378.499Z" fill="#3F3D56"/>
<path d="M196.801 190.304C148.338 190.304 98.355 159.415 48.2002 98.4599L49.7731 97.2131C100.22 158.525 150.372 189.196 198.806 188.303C245.884 187.458 292.805 156.821 338.266 97.2417L339.884 98.4312C294.03 158.526 246.577 189.43 198.843 190.286C198.163 190.299 197.482 190.305 196.801 190.304Z" fill="#3F3D56"/>
<path d="M196.647 183.638C150.871 183.638 103.662 154.994 56.292 98.4666L57.8535 97.2063C105.492 154.054 152.824 182.444 198.584 181.636C243.007 180.836 287.284 152.439 330.185 97.2349L331.792 98.438C288.498 154.149 243.693 182.808 198.621 183.62C197.964 183.632 197.305 183.638 196.647 183.638Z" fill="#3F3D56"/>
<path d="M376.57 147.345C375.869 146.756 375.163 146.161 374.463 145.561C359.335 132.636 344.168 116.935 328.963 98.4593L330.536 97.2153C344.974 114.767 359.378 129.797 373.745 142.304C374.468 142.937 375.193 143.562 375.919 144.181C376.147 145.234 376.364 146.289 376.57 147.345Z" fill="#3F3D56"/>
<path d="M374.24 137.143C373.456 136.456 372.674 135.754 371.894 135.037C359.443 123.641 347.802 111.422 337.052 98.4654L338.614 97.2051C348.611 109.239 359.369 120.642 370.827 131.349C371.649 132.118 372.467 132.871 373.29 133.608V133.613C373.618 134.786 373.94 135.965 374.24 137.143Z" fill="#3F3D56"/>
<path d="M71.8425 113.487H69.821V199.509H71.8425V113.487Z" fill="#3F3D56"/>
<path d="M90.6491 132.372H88.6276V199.509H90.6491V132.372Z" fill="#3F3D56"/>
<path d="M116.266 153.367H114.244V200.005H116.266V153.367Z" fill="#3F3D56"/>
<path d="M140.789 168.264H138.767V199.509H140.789V168.264Z" fill="#3F3D56"/>
<path d="M161.137 176.686H159.116V200.501H161.137V176.686Z" fill="#3F3D56"/>
<path d="M352.047 113.487H350.026V199.509H352.047V113.487Z" fill="#3F3D56"/>
<path d="M370.854 132.372H368.832V199.509H370.854V132.372Z" fill="#3F3D56"/>
<path d="M58.5427 98.4593C51.5155 106.998 44.4938 114.949 37.4775 122.313C36.7991 123.017 36.1264 123.717 35.4594 124.414C29.8553 130.192 24.2604 135.593 18.6747 140.618C17.9966 141.229 17.3221 141.831 16.6512 142.424C15.6726 143.286 14.6996 144.137 13.7213 144.977C13.4932 145.174 13.2709 145.37 13.0429 145.561C12.5648 145.97 12.0811 146.38 11.5973 146.783C11.8142 145.719 12.0365 144.661 12.27 143.597V143.592C12.7706 143.171 13.2652 142.74 13.7601 142.304C13.9935 142.102 14.2216 141.9 14.455 141.698V141.693C15.1888 141.055 15.9209 140.407 16.6512 139.751C17.3293 139.15 18.0038 138.541 18.6747 137.923C24.2623 132.843 29.8572 127.374 35.4594 121.516C36.1321 120.813 36.8048 120.109 37.4775 119.394C43.971 112.514 50.4683 105.121 56.9696 97.2153L58.5427 98.4593Z" fill="#3F3D56"/>
<path d="M50.4535 98.4654C46.0558 103.714 41.6619 108.721 37.2717 113.486C36.6658 114.141 36.0653 114.79 35.4594 115.434C29.805 121.484 24.1546 127.131 18.508 132.375C17.8853 132.953 17.2663 133.524 16.6512 134.088C16.5567 134.181 16.4565 134.268 16.3621 134.35C16.1118 134.584 15.8618 134.808 15.6115 135.037C15.0721 135.534 14.5329 136.019 13.9881 136.499C14.2995 135.304 14.6275 134.111 14.9721 132.92C15.5447 132.407 16.1136 131.884 16.6788 131.349C16.9403 131.109 17.196 130.869 17.4571 130.623C23.2836 125.194 29.1157 119.331 34.9534 113.033C39.5957 108.024 44.2417 102.748 48.8912 97.2051L50.4535 98.4654Z" fill="#3F3D56"/>
<path d="M37.4796 113.487H35.4581V199.509H37.4796V113.487Z" fill="#3F3D56"/>
<path d="M18.673 132.372H16.6515V199.509H18.673V132.372Z" fill="#3F3D56"/>
<path d="M321.273 111.503H319.251V199.509H321.273V111.503Z" fill="#3F3D56"/>
<path d="M302.466 132.372H300.445V199.509H302.466V132.372Z" fill="#3F3D56"/>
<path d="M276.85 153.367H274.828V200.005H276.85V153.367Z" fill="#3F3D56"/>
<path d="M252.327 168.264H250.305V199.509H252.327V168.264Z" fill="#3F3D56"/>
<path d="M231.978 176.686H229.956V200.501H231.978V176.686Z" fill="#3F3D56"/>
<path d="M192.789 182.54H190.767V200.501H192.789V182.54Z" fill="#3F3D56"/>
<path d="M179.907 293.475H133.176C132.455 293.475 131.763 293.193 131.253 292.693C130.743 292.193 130.457 291.514 130.457 290.806C130.457 290.098 130.743 289.42 131.253 288.919C131.763 288.419 132.455 288.138 133.176 288.138H179.907C180.628 288.138 181.32 288.419 181.83 288.919C182.34 289.42 182.626 290.098 182.626 290.806C182.626 291.514 182.34 292.193 181.83 292.693C181.32 293.193 180.628 293.475 179.907 293.475Z" fill="white"/>
<path d="M254.886 277.047H208.155C207.434 277.047 206.742 276.766 206.232 276.265C205.722 275.765 205.436 275.086 205.436 274.379C205.436 273.671 205.722 272.992 206.232 272.492C206.742 271.991 207.434 271.71 208.155 271.71H254.886C255.607 271.71 256.299 271.991 256.809 272.492C257.318 272.992 257.605 273.671 257.605 274.379C257.605 275.086 257.318 275.765 256.809 276.265C256.299 276.766 255.607 277.047 254.886 277.047Z" fill="white"/>
<path d="M224.515 316.449H177.784C177.063 316.449 176.371 316.168 175.861 315.667C175.351 315.167 175.065 314.488 175.065 313.781C175.065 313.073 175.351 312.394 175.861 311.894C176.371 311.393 177.063 311.112 177.784 311.112H224.515C225.236 311.112 225.928 311.393 226.438 311.894C226.948 312.394 227.234 313.073 227.234 313.781C227.234 314.488 226.948 315.167 226.438 315.667C225.928 316.168 225.236 316.449 224.515 316.449Z" fill="white"/>
<path d="M147.643 80.6346C147.579 80.6348 147.515 80.6226 147.455 80.5986C147.396 80.5746 147.342 80.5393 147.296 80.4948C147.251 80.4502 147.215 80.3973 147.19 80.339C147.165 80.2808 147.153 80.2183 147.153 80.1552C147.153 80.0921 147.165 80.0296 147.19 79.9713C147.215 79.9131 147.251 79.8601 147.296 79.8156C147.342 79.7711 147.396 79.7358 147.455 79.7118C147.515 79.6878 147.579 79.6756 147.643 79.6758H179.979C180.793 76.3821 182.708 73.451 185.418 71.3501C188.128 69.2492 191.477 68.0996 194.93 68.0848C196.16 64.182 198.518 60.7136 201.718 58.101C204.918 55.4883 208.822 53.8439 212.956 53.3674C217.09 52.8909 221.276 53.6029 225.006 55.4168C228.736 57.2308 231.848 60.0687 233.966 63.5857C234.446 63.549 234.918 63.5305 235.371 63.5305C239.97 63.5427 244.394 65.2586 247.758 68.3349C251.123 71.4112 253.18 75.6209 253.517 80.1216C253.522 80.1844 253.514 80.2475 253.493 80.3072C253.473 80.3669 253.441 80.4221 253.399 80.4696C253.357 80.5172 253.306 80.5561 253.248 80.5842C253.191 80.6123 253.128 80.629 253.064 80.6334C253.053 80.6342 253.041 80.6346 253.03 80.6346C252.906 80.6345 252.787 80.5884 252.697 80.5057C252.606 80.423 252.551 80.3097 252.543 80.1888L147.643 80.6346Z" fill="#E6E6E6"/>
<path d="M186.643 93.7336H159.775C159.646 93.7331 159.522 93.6823 159.431 93.5924C159.339 93.5024 159.288 93.3806 159.288 93.2536C159.288 93.1266 159.339 93.0048 159.431 92.9149C159.522 92.8249 159.646 92.7741 159.775 92.7737H186.643C186.707 92.7735 186.771 92.7857 186.83 92.8097C186.89 92.8337 186.944 92.8691 186.989 92.9136C187.035 92.9582 187.071 93.0112 187.096 93.0696C187.12 93.1279 187.133 93.1905 187.133 93.2536C187.133 93.3168 187.12 93.3794 187.096 93.4377C187.071 93.496 187.035 93.549 186.989 93.5936C186.944 93.6382 186.89 93.6735 186.83 93.6975C186.771 93.7215 186.707 93.7338 186.643 93.7336Z" fill="#E6E6E6"/>
<path d="M216.329 110.888L220.392 107.699C217.236 107.358 215.939 109.047 215.408 110.384C212.943 109.379 210.259 110.696 210.259 110.696L218.387 113.592C217.977 112.517 217.263 111.579 216.329 110.888V110.888Z" fill="#3F3D56"/>
<path d="M311.399 79.7882L315.461 76.5993C312.305 76.2576 311.009 77.9469 310.478 79.2839C308.012 78.2791 305.328 79.5959 305.328 79.5959L313.457 82.492C313.047 81.417 312.333 80.4791 311.399 79.7882V79.7882Z" fill="#3F3D56"/>
<path d="M71.7191 238.701H32.2458V245.248H71.7191V238.701Z" fill="#3F3D56"/>
<path d="M354.704 238.701H315.23V245.248H354.704V238.701Z" fill="#3F3D56"/>
<path d="M378.794 193.23H9.20325V194.869H378.794V193.23Z" fill="#3F3D56"/>
</svg>
