<svg width="362" height="359" viewBox="0 0 362 359" fill="none" xmlns="http://www.w3.org/2000/svg">
<path opacity="0.2" d="M127.707 242.398C113.035 245.67 97.6411 242.987 84.9106 234.937C72.1786 226.885 63.1555 214.128 59.8223 199.47C56.9618 186.87 58.4937 173.687 64.1661 162.107C69.8371 150.526 79.3085 141.241 91.0119 135.79L73.6654 139.843C58.9925 143.117 46.2459 152.078 38.2275 164.758C30.2092 177.438 27.576 192.797 30.9091 207.455L30.9083 207.457C34.24 222.114 43.2646 234.872 55.9951 242.923C68.7256 250.973 84.1206 253.657 98.7913 250.384L137.5 240.98L138.807 239.701L127.707 242.398Z" fill="black"/>
<path opacity="0.2" d="M244.555 106.971C259.59 106.486 274.225 111.986 285.238 122.258C296.25 132.531 302.741 146.736 303.28 161.748L303.28 161.748C303.741 174.651 299.773 187.308 292.034 197.622C284.297 207.937 273.251 215.291 260.727 218.466L278.539 217.714C293.573 217.23 307.78 210.803 318.03 199.845C328.282 188.888 333.737 174.299 333.198 159.287L333.198 159.287C332.659 144.274 326.169 130.07 315.157 119.798C304.142 109.524 289.509 104.025 274.473 104.509L234.662 106.539L233.137 107.552L244.555 106.971Z" fill="black"/>
<path d="M52.2123 248.905C41.8861 242.375 33.7205 232.941 28.7464 221.797C23.7747 210.653 22.2188 198.298 24.2766 186.298C26.333 174.296 31.9103 163.186 40.3052 154.373C48.6986 145.559 59.5319 139.436 71.4336 136.782L144.215 119.776C152.119 118.005 160.302 117.808 168.294 119.196C176.287 120.585 183.932 123.531 190.793 127.866C197.655 132.202 203.599 137.841 208.284 144.464C212.971 151.085 216.306 158.56 218.101 166.459C218.393 167.743 218.162 169.09 217.458 170.203C216.756 171.315 215.637 172.101 214.351 172.389C213.064 172.675 211.714 172.44 210.598 171.734C209.48 171.027 208.689 169.908 208.397 168.624C205.357 155.251 197.124 143.612 185.511 136.268C173.896 128.923 159.853 126.475 146.468 129.462C125.509 148.198 101.532 154.986 73.6855 146.467C67.0544 147.939 60.7803 150.702 55.2277 154.598C49.6728 158.494 44.9471 163.448 41.3191 169.175C37.6898 174.902 35.2313 181.291 34.0797 187.978C32.9289 194.664 33.11 201.514 34.6125 208.14C36.1149 214.765 38.9099 221.034 42.8374 226.59C46.7634 232.145 51.7462 236.878 57.4995 240.516C63.2519 244.155 69.6625 246.63 76.3649 247.798C83.0674 248.966 89.9305 248.804 96.5595 247.323C101.529 237.342 109.852 230.268 135.176 237.941C135.811 237.785 136.473 237.755 137.119 237.855C137.768 237.954 138.39 238.179 138.95 238.517C139.511 238.857 140 239.302 140.389 239.83C140.777 240.357 141.057 240.955 141.215 241.591C141.371 242.226 141.4 242.885 141.302 243.531C141.203 244.175 140.978 244.796 140.639 245.353C140.3 245.912 139.854 246.397 139.326 246.781C138.798 247.165 138.199 247.442 137.562 247.595L98.8549 256.998C90.9424 258.797 82.7442 259.006 74.7378 257.617C66.7306 256.229 59.0745 253.266 52.2123 248.905Z" fill="white"/>
<path d="M164.429 230.699C157.558 226.379 151.607 220.745 146.923 214.123C142.24 207.5 138.915 200.022 137.142 192.119C136.849 190.832 137.08 189.485 137.785 188.373C138.488 187.262 139.606 186.476 140.894 186.188C142.18 185.901 143.53 186.137 144.647 186.843C145.764 187.55 146.556 188.669 146.847 189.955C148.352 196.576 151.148 202.841 155.075 208.394C159.002 213.945 163.983 218.674 169.733 222.311C175.484 225.947 181.891 228.42 188.59 229.587C195.289 230.755 202.149 230.596 208.776 229.117C235.68 198.995 261.563 208.711 287.622 211.525C294.249 210.047 300.515 207.279 306.063 203.378C311.61 199.478 316.329 194.523 319.951 188.795C323.573 183.067 326.027 176.679 327.172 169.996C328.318 163.312 328.133 156.464 326.628 149.843C325.123 143.221 322.328 136.956 318.4 131.404C314.473 125.852 309.492 121.123 303.742 117.487C297.991 113.851 291.584 111.378 284.884 110.209C278.185 109.042 271.326 109.202 264.699 110.681C249.113 123.079 233.512 135.729 219.976 120.659C219.338 120.801 218.679 120.817 218.035 120.705C217.391 120.592 216.775 120.355 216.222 120.005C215.105 119.298 214.313 118.179 214.022 116.894C213.729 115.608 213.96 114.261 214.663 113.148C215.366 112.036 216.485 111.25 217.772 110.963L262.494 100.984C270.397 99.2218 278.574 99.0305 286.561 100.423C294.55 101.816 302.189 104.764 309.046 109.1C315.902 113.436 321.841 119.074 326.523 125.693C331.204 132.312 334.538 139.783 336.333 147.677C338.127 155.572 338.347 163.737 336.982 171.706C335.616 179.674 332.69 187.29 328.371 194.12C324.052 200.949 318.426 206.857 311.813 211.507C305.198 216.157 297.727 219.458 289.826 221.221L210.98 238.812C203.079 240.599 194.897 240.801 186.907 239.408C178.917 238.015 171.277 235.054 164.429 230.699Z" fill="white"/>
<path d="M109.427 140.74C111.752 142.211 114.825 141.525 116.289 139.209C117.754 136.892 117.057 133.823 114.731 132.352C112.405 130.881 109.333 131.567 107.868 133.883C106.403 136.2 107.101 139.269 109.427 140.74Z" fill="#6C63FF"/>
<path d="M244.535 222.265C246.861 223.736 249.933 223.05 251.398 220.734C252.863 218.417 252.165 215.348 249.84 213.877C247.514 212.406 244.442 213.092 242.977 215.408C241.512 217.725 242.21 220.794 244.535 222.265Z" fill="#6C63FF"/>
</svg>
